<svg xmlns="http://www.w3.org/2000/svg" width="353" height="465" viewBox="0 0 353 465">
    <g fill="none" fill-rule="evenodd">
        <g fill-rule="nonzero">
            <g>
                <g>
                    <g>
                        <g>
                            <path fill="#FC3D0B" d="M196 113.77v-.01l-.06-.05c-.04-.03-.08-.06-.12-.1l-39.28-41.28-25.87 17.41 14.01 21.7c22-1.02 42.89 11.98 42.89 11.98h.03c1 .89 2.27 1.5 3.71 1.62 3.53.3 6.64-2.32 6.94-5.85.18-2.14-.73-4.12-2.25-5.42z" transform="translate(-185 -4478) translate(32 4360) translate(153 118) translate(68 24) translate(0 235)"/>
                            <path fill="#5998FF" d="M58.72 139.86l45.7-97.78-37.36-7.27L48.79.52S46.65 29.56 36.11 57.9c0 .01-.01.02-.01.03L3.53 145.52c-1.37 3.25-2.28 6.76-2.6 10.46-1.62 18.95 12.42 35.62 31.37 37.24 8.42.72 16.39-1.67 22.79-6.19l97.1-63.92-7.53-11.66-14.01-21.7-71.93 50.11z" transform="translate(-185 -4478) translate(32 4360) translate(153 118) translate(68 24) translate(0 235)"/>
                        </g>
                        <path fill="#FFAF00" d="M279.51 3.98c6.11 4.89 7.1 13.82 2.21 19.93-.79.98-1.7 1.78-2.67 2.49l.03.03-17 11.25-6.38 7.97-7.99-23.22 11.88-16.25c4.88-6.11 13.8-7.09 19.92-2.2z" transform="translate(-185 -4478) translate(32 4360) translate(153 118) translate(68 24)"/>
                        <path fill="#D300C8" d="M249.07 20.42L125.3 112.81l-33.15-1.01c-.35 5.87-.74 10.24-.74 10.24s-25.46-6.11-42.83 20.6c-1.18 1.82-2.33 3.47-3.44 4.98l3.65 87.88 101.51-5.62 1.94-52.66c3.22-29.58 24.25-48.56 24.25-48.56l93.79-82.52-21.21-25.72z" transform="translate(-185 -4478) translate(32 4360) translate(153 118) translate(68 24)"/>
                        <g>
                            <path fill="#FC3D0B" d="M231.72 87.15c-.51-2.09-2-3.68-3.85-4.43v-.01l-.07-.03c-.05-.02-.09-.04-.14-.05L177.3 55.97l-19 24.73 20.17 16.12c20.54-7.96 44.48-2.27 44.48-2.27.01 0 .02-.01.03-.01 1.23.53 2.63.7 4.03.36 3.43-.83 5.55-4.3 4.71-7.75z" transform="translate(-185 -4478) translate(32 4360) translate(153 118) translate(68 24) translate(46 229)"/>
                            <path fill="#5998FF" d="M105.99 151.08l12.27-107.23C121 19.87 104.3.9 104.3.9L2.79 6.52.2 36.75l30.08 21.38 11.57-1.88c-.08.38-.2.75-.23 1.14-.4 4.71 2.43 9.01 6.84 11.42 1.1-1.95 3.26-3.2 5.64-2.99 2.19.19 3.92 1.58 4.78 3.44l-3.42 104.73c-.27 3.52-.02 7.13.86 10.74 4.48 18.48 23.1 29.83 41.58 25.34 8.22-1.99 15.01-6.79 19.64-13.11l71.76-91.46-10.84-8.66-20.17-16.12-52.3 70.36z" transform="translate(-185 -4478) translate(32 4360) translate(153 118) translate(68 24) translate(46 229)"/>
                        </g>
                        <g>
                            <path fill="#FFAF00" d="M6.98 8.9C3.05 13.12.56 18.7.35 24.91c-.47 13.67 10.24 25.13 23.91 25.6 13.67.47 25.14-10.24 25.6-23.91C20.97 30.78 7 8.93 6.98 8.9z" transform="translate(-185 -4478) translate(32 4360) translate(153 118) translate(68 24) translate(83 78)"/>
                            <path fill="#001376" d="M25.95 1C18.49.75 11.7 3.83 6.98 8.9c.02.03 13.99 21.88 42.88 17.7C50.33 12.93 39.62 1.47 25.95 1z" transform="translate(-185 -4478) translate(32 4360) translate(153 118) translate(68 24) translate(83 78)"/>
                        </g>
                        <path fill="#001376" d="M168.55 35.94c1.74-15.97-9.79-30.33-25.76-32.07-15.97-1.74-30.33 9.79-32.07 25.76-.24 2.16-.21 4.29.02 6.36h-.01l5.56 48.18 38.83-26.79c.59-.37 1.16-.77 1.72-1.19l.29-.2h-.01c6.19-4.66 10.52-11.75 11.43-20.05zM102.23 391.26L101.45 391.23 103 343.73 103.79 343.75z" transform="translate(-185 -4478) translate(32 4360) translate(153 118) translate(68 24)"/>
                    </g>
                    <g>
                        <path fill="#D300C8" d="M166.79 181.41c-5.89-5.08-13.72-16.84-20.44-20.51-.6.53-1.23 1.03-1.92 1.49-1.52 1.43-3.25 2.52-5.15 3.31 1.12-7.7 1.97-14.92.3-17.99l-76.54 32-13.29-52.89-20.54 5.2-11.02 2.79 14.11 69.46c1.76 9.89 10.22 17.56 20.66 17.91 2.5.09 4.9-.28 7.16-.97v.01l.17-.06c.63-.2 1.24-.42 1.85-.68L142 191.12c-4.05 1.06-5.02-2.91-4.75-8.89 3.56 4.36 6.35 8.14 4.96 8.81l24.58-9.63z" transform="translate(-185 -4478) translate(32 4360) translate(153 118)"/>
                        <path fill="#FFAF00" d="M49.75 126.82l-1.31-20.31c-.27-2.44-1.13-4.68-2.44-6.57L31.88 117.5l-3.57 4.44c-.63.79-1.78.91-2.57.28l-1.42-1.14 4.88 10.94 20.55-5.2z" transform="translate(-185 -4478) translate(32 4360) translate(153 118)"/>
                        <path fill="#001376" d="M28.32 121.94l3.57-4.44L7.92 98.23l25.13-31.26 23.97 19.27-3.75 4.66 7.31-9.1c.63-.79.51-1.94-.28-2.57L39.18 62.25c-.79-.63-1.94-.51-2.57.28L4.34 102.67c-.63.79-.51 1.94.28 2.57l19.7 15.84 1.42 1.14c.8.63 1.95.51 2.58-.28z" transform="translate(-185 -4478) translate(32 4360) translate(153 118)"/>
                        <path fill="#5998FF" d="M33.06 66.97L7.92 98.23 31.89 117.5 31.89 117.5 46.01 99.94 53.28 90.9 57.02 86.24z" transform="translate(-185 -4478) translate(32 4360) translate(153 118)"/>
                        <path fill="#001376" d="M79.75 64.5l-7.98-2.31c-.43-.13-.89.12-1.01.56l-1.86 6.41c-.13.43.12.89.56 1.01l7.99 2.31-6 5.76c-.33.31-.34.83-.02 1.16l4.62 4.81c.31.33.83.34 1.16.02l6-5.76 1.99 8.07c.11.44.55.71.99.6l6.48-1.6c.44-.11.71-.55.6-.99l-1.99-8.07 7.99 2.31c.43.13.89-.12 1.02-.56l1.86-6.41c.13-.43-.12-.89-.56-1.01L93.6 68.5l6-5.76c.33-.31.34-.83.02-1.16L95 56.77c-.31-.33-.83-.34-1.16-.02l-6 5.76-1.99-8.07c-.11-.44-.55-.71-.99-.6l-6.48 1.6c-.44.11-.71.55-.6.99l1.97 8.07z" transform="translate(-185 -4478) translate(32 4360) translate(153 118)"/>
                        <path fill="#FFAF00" d="M21.99 26.57l12.8 3.71-9.61 9.23c-.52.5-.54 1.33-.04 1.86l7.41 7.71c.5.52 1.33.54 1.86.04l9.61-9.23 3.19 12.94c.17.7.88 1.13 1.59.96l10.38-2.56c.7-.17 1.13-.88.96-1.59L56.95 36.7l12.8 3.71c.7.2 1.42-.2 1.63-.9l2.98-10.27c.2-.7-.2-1.42-.9-1.63l-12.8-3.71 9.61-9.23c.52-.5.54-1.33.04-1.86L62.9 5.1c-.5-.52-1.33-.54-1.86-.04l-9.61 9.23-3.19-12.94c-.17-.7-.88-1.13-1.59-.96L36.27 2.95c-.7.17-1.13.88-.96 1.59l3.19 12.94-12.8-3.71c-.7-.2-1.42.2-1.63.9l-2.98 10.27c-.2.7.21 1.43.9 1.63z" transform="translate(-185 -4478) translate(32 4360) translate(153 118)"/>
                        <path fill="#D300C8" d="M82.686 20.619H110.426V32.479H82.686z" transform="translate(-185 -4478) translate(32 4360) translate(153 118) rotate(-72.362 96.556 26.549)"/>
                        <path fill="#5998FF" d="M70.841 87.517H82.702V115.258H70.841z" transform="translate(-185 -4478) translate(32 4360) translate(153 118) rotate(-81.75 76.771 101.388)"/>
                        <path fill="#FC3D0B" d="M22.42 53.83c0-5.92-4.8-10.72-10.72-10.72-5.92 0-10.72 4.8-10.72 10.72 0 5.92 4.8 10.72 10.72 10.72 5.92 0 10.72-4.8 10.72-10.72z" transform="translate(-185 -4478) translate(32 4360) translate(153 118)"/>
                    </g>
                </g>
            </g>
        </g>
    </g>
</svg>
